<?xml version="1.0" encoding="UTF-8"?>
<svg id="Layer_2" data-name="Layer 2" xmlns="http://www.w3.org/2000/svg" viewBox="0 0 2773.82 625.77">
  <defs>
    <style>
      .cls-1 {
        fill: #fff;
        stroke-width: 0px;
      }
    </style>
  </defs>
  <g id="Layer_1-2" data-name="Layer 1">
    <g>
      <path class="cls-1" d="M0,6.95V0h181.48c181.46,0,214.84,82.04,214.84,135.58,0,104.99-122.37,151.58-239.18,166.87l-23.64,3.47v136.98c0,25.72,3.48,36.85,21.55,36.85v6.96H0v-6.96c18.77,0,22.25-11.12,22.25-36.85V43.8C22.25,18.07,18.77,6.95,0,6.95ZM136.29,290.63c103.59-15.99,153.66-70.92,153.66-164.78,0-49.37-20.16-111.95-120.28-111.95h-14.61c-18.07,0-21.55,5.56-21.55,31.29v246.14l2.79-.7Z"/>
      <path class="cls-1" d="M397.73,170.35v-6.96l146.02-35.46v6.96c-13.21,17.38-13.91,55.62-13.91,83.44,18.07-65.36,70.23-90.39,119.59-90.39,33.37,0,57.02,8.35,75.78,27.13l-81.34,73c-12.52-9.04-28.52-15.99-45.89-15.99-27.13,0-68.14,13.21-68.14,70.93v159.92c0,25.72,3.48,36.85,22.25,36.85v6.96h-155.75v-6.96c18.77,0,22.25-11.12,22.25-36.85v-203.73c0-57.01-11.82-68.83-20.86-68.83Z"/>
      <path class="cls-1" d="M852.65,127.93c107.77,0,182.85,76.49,182.85,184.95s-75.09,184.95-182.85,184.95-182.18-76.48-182.18-184.95,75.09-184.95,182.18-184.95ZM877.66,468.63c42.43,0,61.89-64.66,47.29-155.75-15.28-91.08-54.93-155.75-97.34-155.75s-61.2,64.67-46.59,155.75c15.3,91.09,54.93,155.75,96.64,155.75Z"/>
      <path class="cls-1" d="M1036.92,170.35v-6.96l146.02-35.46v6.96c-11.82,15.99-13.91,50.06-13.91,77.18,16.68-60.49,59.8-84.13,100.12-84.13,45.89,0,91.79,18.08,102.91,93.88,13.89-67.45,59.78-93.88,102.21-93.88,52.84,0,104.98,23.64,104.98,130.03v184.95c0,25.72,3.48,36.85,21.55,36.85v6.96h-155.05v-6.96c18.77,0,22.25-11.12,22.25-36.85v-196.08c0-34.07-15.98-57.02-44.5-57.02-32.68,0-49.36,34.77-49.36,88.31v164.78c0,25.72,3.46,36.85,21.55,36.85v6.96h-155.05v-6.96c18.77,0,22.25-11.12,22.25-36.85v-196.08c0-34.07-16-57.02-44.5-57.02-32.7,0-49.38,34.77-49.38,88.31v164.78c0,25.72,3.48,36.85,22.25,36.85v6.96h-155.75v-6.96c18.77,0,22.25-11.12,22.25-36.85v-203.73c0-57.01-11.82-68.83-20.86-68.83Z"/>
      <path class="cls-1" d="M1595.25,168.95v-6.96l146.02-34.07v6.96c-13.21,15.99-13.91,57.02-13.91,82.74,18.77-63.96,68.14-89.7,109.86-89.7,61.2,0,117.52,50.07,117.52,168.27,0,92.48-35.46,201.64-128.64,201.64-56.32,0-86.21-39.63-98.73-80.66v164.79c0,25.72,3.48,36.85,21.55,36.85v6.96h-155.05v-6.96c18.77,0,22.25-11.12,22.25-36.85V239.18c0-58.4-13.91-70.22-20.86-70.22ZM1792.02,454.73c40.34,0,51.47-68.84,51.47-127.24,0-84.83-18.79-136.29-59.11-136.29-29.22,0-52.84,29.21-57.02,77.87v109.86c4.88,40.33,36.86,75.79,64.66,75.79Z"/>
      <path class="cls-1" d="M1954.75,139.05c54.23,0,125.16-55.62,125.16-101.51h6.95v101.51h52.84v13.91h-52.84v233.62c0,29.9,16,50.76,41.02,50.76,30.61,0,45.89-32.68,45.89-80.66h13.91c0,103.61-54.23,141.15-108.46,141.15s-103.61-22.95-103.61-125.16v-155.05c0-59.79-13.91-64.66-20.86-64.66v-13.91Z"/>
      <path class="cls-1" d="M2618.07,6.95c-18.77,0-22.25,11.12-22.25,36.86v399.1c0,25.72,3.48,36.85,22.25,36.85v6.96h-199.55v-6.96c55.62,0,66.05-11.12,66.05-36.85v-159.92h-139.05l-40.32,66.05c-53.55,87.61-7.66,130.71,63.27,130.71v6.96h-201.64v-6.96c9.73,0,51.45-43.11,105-130.71l191.19-311.5c13.21-22.25,9.06-30.6-65.36-30.6V0h220.41v6.95ZM2484.57,269.08V55.62l-130.71,213.45h130.71Z"/>
      <path class="cls-1" d="M2618.07,6.95V0h155.75v6.95c-18.77,0-22.25,11.12-22.25,36.86v399.1c0,25.72,3.48,36.85,22.25,36.85v6.96h-155.75v-6.96c18.77,0,22.25-11.12,22.25-36.85V43.8c0-25.73-3.48-36.86-22.25-36.86Z"/>
    </g>
  </g>
</svg>